# xmcd CD database file
#
# Track frame offsets:
#	150
#	28540
#	48930
#	67322
#	82150
#	103505
#	130380
#	144657
#	162667
#	176957
#
# Disc length: 2652 seconds
#
# Revision: 0
# Processed by: cddbd v1.4PL0 Copyright (c) Steve Scherf et al.
# Submitted via: CDex 1.50
#
DISCID=980a5a0a
DTITLE=Stevie and the Stealers - Stevie and the Stealers
DYEAR=1992
DGENRE=Blues
TTITLE0=Stealin' Horses
TTITLE1=Down on a Corner
TTITLE2=Light of Love
TTITLE3=Ileah !
TTITLE4=Try Again
TTITLE5=Cold Blue Steel
TTITLE6=Leave It Alone
TTITLE7=Idiot Child
TTITLE8=Paris by Nightfall
TTITLE9=My Home (is in your Heart)
EXTD=YEAR: 1992
EXTT0=
EXTT1=
EXTT2=
EXTT3=
EXTT4=
EXTT5=
EXTT6=
EXTT7=
EXTT8=
EXTT9=
PLAYORDER=
